<?xml version="1.0" standalone="no"?>
<!DOCTYPE svg PUBLIC "-//W3C//DTD SVG 20010904//EN"
 "http://www.w3.org/TR/2001/REC-SVG-20010904/DTD/svg10.dtd">
<svg version="1.0" xmlns="http://www.w3.org/2000/svg"
 width="155.000000pt" height="70.000000pt" viewBox="0 0 155.000000 70.000000"
 preserveAspectRatio="xMidYMid meet">

<g transform="translate(0.000000,70.000000) scale(0.100000,-0.100000)"
fill="#000000" stroke="none">
<path d="M296 507 l-239 -112 85 -3 84 -3 157 75 156 75 173 -44 c95 -24 174
-43 175 -41 3 3 -343 167 -349 166 -2 -1 -110 -51 -242 -113z"/>
<path d="M60 243 l0 -117 39 38 39 38 78 -66 c77 -66 77 -66 135 -65 65 2 65
0 -21 66 -30 23 -68 53 -84 66 l-29 24 39 26 c32 23 50 27 105 27 53 0 68 -3
73 -16 11 -29 -13 -43 -77 -46 l-61 -3 82 -73 c69 -60 89 -72 117 -72 19 0 35
3 35 7 0 4 -19 26 -41 49 l-41 42 23 13 c35 18 48 40 49 80 0 64 -60 99 -173
99 -62 0 -89 -15 -174 -94 l-33 -30 0 62 0 62 -40 0 -40 0 0 -117z"/>
<path d="M590 269 c0 -81 2 -90 18 -87 9 2 18 14 20 28 6 42 19 44 44 6 12
-20 31 -36 41 -36 23 0 22 9 -8 52 -31 46 -31 51 1 94 25 32 25 34 6 34 -12 0
-34 -16 -51 -37 l-31 -38 0 38 c0 30 -4 37 -20 37 -19 0 -20 -7 -20 -91z"/>
<path d="M760 286 c0 -66 3 -77 22 -90 31 -22 74 -20 98 4 16 16 20 33 20 90
0 61 -2 70 -18 70 -16 0 -19 -9 -19 -57 -1 -32 -2 -61 -2 -65 -1 -4 -10 -12
-20 -18 -33 -17 -51 12 -51 81 0 46 -3 59 -15 59 -12 0 -15 -15 -15 -74z"/>
<path d="M930 270 c0 -83 1 -90 20 -90 16 0 20 7 20 35 0 22 5 35 13 35 7 0
21 -16 30 -35 9 -19 23 -35 32 -35 18 0 19 11 3 45 -9 19 -9 28 0 37 17 17 15
64 -4 82 -10 10 -33 16 -65 16 l-49 0 0 -90z m90 35 c0 -20 -5 -25 -25 -25
-20 0 -25 5 -25 25 0 20 5 25 25 25 20 0 25 -5 25 -25z"/>
<path d="M1090 269 c0 -81 2 -90 18 -87 14 3 17 17 20 91 3 82 2 87 -18 87
-19 0 -20 -6 -20 -91z"/>
<path d="M1205 350 c-8 -13 -55 -151 -55 -162 0 -18 31 -6 41 16 16 33 67 34
79 0 5 -13 16 -24 25 -24 20 0 20 0 -12 97 -23 71 -30 83 -49 83 -13 0 -26 -5
-29 -10z m44 -87 c1 -7 -8 -13 -19 -13 -23 0 -23 0 -9 37 10 26 12 27 19 8 5
-11 9 -26 9 -32z"/>
<path d="M1340 270 c0 -72 3 -90 15 -90 10 0 15 15 17 58 l3 57 39 -57 c56
-83 66 -78 66 32 0 81 -2 90 -19 90 -16 0 -18 -7 -16 -50 1 -27 -1 -50 -4 -50
-3 0 -21 23 -39 50 -49 76 -62 68 -62 -40z"/>
<path d="M590 120 c0 -27 5 -50 10 -50 6 0 10 7 10 15 0 8 5 15 10 15 6 0 13
-7 16 -15 11 -27 20 -16 20 23 -1 47 -11 62 -42 62 -22 0 -24 -4 -24 -50z m48
18 c-6 -18 -28 -21 -28 -4 0 9 7 16 16 16 9 0 14 -5 12 -12z"/>
<path d="M674 146 c-12 -48 -2 -71 34 -74 18 -2 32 1 32 7 0 6 -11 11 -25 11
-14 0 -25 5 -25 10 0 6 9 10 20 10 11 0 20 5 20 10 0 6 -9 10 -20 10 -11 0
-20 5 -20 10 0 6 11 10 25 10 14 0 25 5 25 10 0 6 -13 10 -30 10 -23 0 -31 -5
-36 -24z"/>
<path d="M757 164 c-11 -11 -9 -82 3 -89 6 -4 10 5 10 19 0 33 5 33 35 -1 l24
-28 1 53 c0 33 -4 51 -10 47 -5 -3 -10 -16 -10 -28 0 -21 -1 -20 -23 6 -12 16
-26 25 -30 21z"/>
<path d="M861 156 c-31 -37 9 -103 47 -80 36 23 23 94 -18 94 -10 0 -23 -6
-29 -14z m47 -33 c-4 -36 -38 -45 -38 -10 0 27 7 37 27 37 10 0 13 -9 11 -27z"/>
<path d="M940 167 c0 -21 35 -97 44 -97 12 0 36 61 36 90 0 20 -14 2 -26 -33
l-11 -32 -12 38 c-7 20 -17 37 -22 37 -5 0 -9 -1 -9 -3z"/>
<path d="M1044 135 c-18 -44 -19 -74 -2 -57 16 16 45 15 51 0 2 -7 7 -10 11
-7 8 8 -24 99 -35 99 -6 0 -17 -16 -25 -35z m30 -10 c3 -8 1 -15 -4 -15 -6 0
-10 7 -10 15 0 8 2 15 4 15 2 0 6 -7 10 -15z"/>
<path d="M1110 160 c0 -5 7 -10 15 -10 11 0 15 -11 15 -41 0 -24 4 -38 10 -34
6 3 10 22 10 41 0 24 4 34 16 34 8 0 12 5 9 10 -3 6 -22 10 -41 10 -19 0 -34
-4 -34 -10z"/>
<path d="M1200 120 c0 -32 4 -49 10 -45 6 3 10 24 10 45 0 21 -4 42 -10 45 -6
4 -10 -13 -10 -45z"/>
<path d="M1246 154 c-9 -8 -16 -24 -16 -34 0 -22 25 -50 45 -50 20 0 45 28 45
50 0 22 -25 50 -45 50 -7 0 -21 -7 -29 -16z m49 -34 c0 -15 -6 -26 -16 -28
-19 -3 -31 21 -22 43 9 25 38 13 38 -15z"/>
<path d="M1339 170 c-6 -23 -4 -81 2 -92 6 -9 9 -4 9 15 0 15 2 27 5 27 3 0
17 -12 30 -27 l24 -28 1 53 c0 33 -4 51 -10 47 -5 -3 -10 -16 -10 -28 0 -20
-2 -20 -25 8 -13 17 -25 28 -26 25z"/>
<path d="M1443 163 c-23 -9 -15 -42 12 -49 14 -3 25 -11 25 -16 0 -6 -11 -7
-25 -4 -29 7 -35 -10 -6 -19 47 -15 69 30 23 50 -31 14 -28 29 5 20 23 -5 25
-4 14 9 -14 16 -26 19 -48 9z"/>
<path d="M150 126 c0 -9 5 -16 10 -16 6 0 10 4 10 9 0 6 -4 13 -10 16 -5 3
-10 -1 -10 -9z"/>
<path d="M110 120 c0 -5 5 -10 10 -10 6 0 10 5 10 10 0 6 -4 10 -10 10 -5 0
-10 -4 -10 -10z"/>
<path d="M110 85 c0 -8 5 -15 10 -15 6 0 10 7 10 15 0 8 -4 15 -10 15 -5 0
-10 -7 -10 -15z"/>
<path d="M150 85 c0 -8 5 -15 10 -15 6 0 10 7 10 15 0 8 -4 15 -10 15 -5 0
-10 -7 -10 -15z"/>
</g>
</svg>
